<?xml version="1.0" standalone="no"?>
<!DOCTYPE svg PUBLIC "-//W3C//DTD SVG 20010904//EN"
 "http://www.w3.org/TR/2001/REC-SVG-20010904/DTD/svg10.dtd">
<svg version="1.0" xmlns="http://www.w3.org/2000/svg"
 width="1000.000000pt" height="1000.000000pt" viewBox="0 0 1000.000000 1000.000000"
 preserveAspectRatio="xMidYMid meet">
<metadata>
Created by potrace 1.14, written by Peter Selinger 2001-2017
</metadata>
<g transform="translate(0.000000,1000.000000) scale(0.100000,-0.100000)"
fill="#000000" stroke="none">
<path d="M4208 7485 c-4 -4 -255 -19 -289 -17 -23 1 -208 -190 -269 -278 -13
-19 -27 -37 -30 -40 -3 -3 -17 -21 -30 -40 -13 -19 -27 -37 -30 -40 -3 -3 -17
-21 -30 -40 -13 -19 -27 -37 -30 -40 -3 -3 -17 -21 -30 -40 -13 -19 -27 -37
-30 -40 -3 -3 -17 -21 -30 -40 -13 -19 -27 -37 -30 -40 -3 -3 -17 -21 -30 -40
-13 -19 -27 -37 -30 -40 -3 -3 -17 -21 -30 -40 -13 -19 -27 -37 -30 -40 -3 -3
-27 -34 -53 -70 -27 -36 -54 -72 -61 -80 -26 -33 -75 -107 -100 -155 -22 -41
-107 -166 -143 -210 -4 -6 -24 -31 -43 -57 -19 -26 -38 -48 -42 -48 -7 0 -6
53 7 531 5 176 9 749 6 816 -1 18 -67 33 -146 32 -39 0 -113 2 -165 5 -306 15
-542 18 -585 6 -54 -15 -66 -28 -100 -110 l-27 -64 0 -701 c0 -645 4 -871 17
-1030 3 -33 5 -94 6 -135 0 -41 4 -125 9 -186 6 -61 10 -140 11 -175 0 -35 5
-91 10 -124 6 -33 12 -399 14 -815 3 -415 7 -789 9 -830 3 -41 5 -83 6 -92 0
-30 51 -45 180 -54 147 -11 446 -6 545 7 181 25 169 16 184 137 14 105 19
1320 7 1341 -9 14 -20 161 -12 161 10 0 89 -82 116 -120 13 -19 27 -37 30 -40
3 -3 34 -48 70 -100 35 -52 66 -97 69 -100 4 -3 18 -21 33 -42 15 -20 33 -42
40 -50 7 -7 33 -38 58 -68 25 -30 72 -83 105 -118 56 -59 114 -150 115 -180 0
-7 26 -39 58 -70 31 -31 77 -82 102 -112 25 -30 47 -57 50 -60 3 -3 25 -30 50
-60 25 -30 47 -57 50 -60 3 -3 25 -30 50 -60 25 -30 47 -57 50 -60 3 -3 30
-34 60 -70 30 -36 58 -66 63 -68 4 -2 7 -8 7 -13 0 -6 35 -45 78 -88 52 -53
87 -81 110 -85 41 -9 35 -19 -25 -40 -26 -10 -61 -24 -78 -31 -46 -20 -158
-65 -162 -65 -2 0 18 23 46 50 27 28 48 57 47 65 -3 19 -36 55 -52 55 -7 0
-70 -59 -141 -131 -78 -80 -145 -139 -172 -152 -38 -19 -53 -38 -120 -148 -42
-69 -106 -167 -143 -217 -67 -91 -73 -106 -31 -77 19 14 22 13 33 -15 8 -19
20 -30 32 -30 20 0 64 39 104 91 11 15 42 34 68 43 70 24 238 86 261 96 20 9
153 54 208 71 23 6 28 5 23 -6 -4 -12 6 -15 50 -15 53 0 58 2 97 44 28 29 56
48 84 55 23 6 70 20 104 31 34 11 65 20 70 20 5 0 -17 -26 -47 -58 l-56 -57
62 -3 63 -3 91 89 c50 49 100 92 111 95 11 2 43 10 70 17 28 6 66 15 85 20 68
17 191 44 270 59 30 6 78 15 105 20 28 5 82 15 120 21 39 6 94 16 124 21 30 5
58 9 64 9 5 0 6 -49 1 -122 -10 -156 -9 -177 4 -190 17 -17 58 -1 102 42 38
37 210 282 210 300 0 4 35 10 78 14 42 3 104 9 137 13 84 9 739 10 860 0 172
-13 219 -17 240 -21 11 -2 49 -7 85 -11 36 -3 85 -10 110 -15 25 -4 79 -14
120 -20 41 -7 109 -19 150 -27 41 -9 86 -18 100 -20 45 -8 274 -64 300 -72 52
-18 165 -51 170 -49 3 1 15 -4 28 -11 13 -7 31 -14 40 -16 36 -8 142 -44 171
-59 39 -21 46 -20 59 6 7 13 26 46 42 73 16 28 33 57 37 65 3 8 9 17 12 20 3
3 12 16 19 29 8 13 22 39 32 57 11 18 60 101 109 184 50 83 91 152 91 155 0 2
-15 7 -32 11 -32 6 -150 79 -156 96 -2 4 -10 8 -18 8 -8 0 -14 5 -14 10 0 6
-6 10 -14 10 -8 0 -16 4 -18 8 -1 5 -25 23 -53 42 -27 18 -52 36 -55 39 -3 3
-27 22 -55 41 -27 19 -51 38 -53 42 -2 4 -10 8 -18 8 -8 0 -14 4 -14 8 0 4
-12 15 -27 24 -16 9 -39 26 -53 37 -14 10 -72 55 -130 98 -58 43 -107 80 -110
83 -3 3 -32 25 -65 50 -81 61 -209 161 -215 169 -3 3 -21 18 -42 33 -20 15
-42 33 -50 40 -7 8 -33 29 -58 48 -25 19 -52 41 -60 50 -8 9 -44 40 -80 70
-36 30 -72 62 -80 70 -8 8 -49 44 -90 80 -41 36 -82 72 -90 80 -8 8 -53 49
-100 90 -246 217 -655 618 -970 950 -91 95 -202 212 -248 258 -45 46 -135 141
-200 210 -64 70 -137 147 -162 172 -25 25 -101 106 -170 180 -222 239 -248
263 -265 246 -8 -8 -15 -17 -15 -20 0 -3 -45 -74 -100 -158 -56 -84 -105 -160
-110 -168 -5 -8 -54 -83 -108 -166 l-99 -150 28 -25 c16 -13 33 -36 40 -51 6
-16 15 -28 20 -28 5 0 9 -5 9 -11 0 -6 13 -29 28 -52 16 -23 40 -62 53 -87 13
-25 26 -47 29 -50 3 -3 15 -23 26 -45 12 -22 34 -60 48 -85 58 -101 226 -449
268 -555 11 -27 26 -63 33 -80 18 -42 62 -164 92 -260 13 -44 33 -104 43 -134
11 -30 17 -58 14 -63 -3 -4 -1 -8 3 -8 5 0 9 -8 10 -17 1 -10 11 -54 22 -98
23 -88 63 -281 80 -390 28 -187 32 -217 46 -427 l7 -87 -29 -6 c-15 -3 -47
-10 -70 -16 -24 -5 -62 -13 -85 -18 -50 -11 -82 -19 -123 -31 -16 -4 -62 -17
-101 -28 l-71 -19 -59 75 c-32 42 -64 80 -69 86 -6 6 -22 27 -35 46 -13 19
-27 37 -30 40 -4 3 -49 61 -100 130 -52 69 -113 145 -136 170 -23 25 -65 74
-94 110 -28 36 -56 72 -63 80 -7 8 -23 31 -37 50 -13 19 -27 37 -30 40 -4 3
-26 34 -50 70 -40 60 -99 136 -142 184 -10 11 -18 30 -18 44 0 19 -48 103 -69
122 -4 3 -26 30 -51 60 -25 30 -47 57 -50 60 -3 3 -17 21 -30 40 -13 19 -27
37 -30 40 -3 3 -16 20 -29 38 -13 18 -47 46 -75 62 -48 28 -121 96 -158 148
-8 13 -31 39 -50 60 -19 20 -63 80 -98 132 -35 52 -76 111 -91 131 -25 32 -27
39 -16 63 6 14 15 26 20 26 4 0 7 6 7 13 0 6 10 24 23 39 12 14 47 59 77 98
30 40 60 77 65 84 6 6 40 49 75 96 36 47 67 87 70 90 3 3 48 61 100 130 52 69
97 127 100 130 3 3 17 21 30 40 13 19 27 37 30 40 3 3 17 21 30 40 13 19 27
37 30 40 3 3 21 25 40 50 19 25 37 47 40 50 3 3 17 21 32 42 15 20 33 42 40
50 7 7 38 42 68 78 30 36 62 72 70 80 8 8 44 49 80 90 36 41 76 86 90 100 14
14 54 59 89 100 36 41 70 80 76 85 5 6 33 37 60 70 28 33 56 66 62 73 24 25
80 128 85 155 4 23 -1 33 -28 54 -29 22 -48 26 -137 33 -108 8 -552 12 -559 5z
m1792 -2715 c8 -8 53 -49 100 -90 47 -41 92 -82 100 -90 8 -8 49 -44 90 -80
41 -36 82 -72 90 -80 8 -8 44 -40 80 -70 36 -30 72 -62 80 -70 8 -8 44 -40 80
-70 36 -30 67 -58 70 -61 3 -3 39 -34 80 -69 41 -35 77 -67 80 -70 3 -3 30
-25 60 -50 30 -25 61 -51 68 -58 8 -7 30 -25 50 -40 21 -15 44 -34 52 -42 8
-9 35 -31 60 -50 25 -19 54 -43 64 -52 19 -18 19 -18 -15 -19 -19 -1 -38 -1
-43 0 -5 1 -64 2 -130 1 -67 0 -139 -1 -161 -1 -120 0 -641 -41 -685 -54 -8
-2 -45 -7 -82 -10 l-68 -6 -1 258 c0 142 -2 276 -4 298 -2 22 -7 83 -9 135 -6
103 -19 226 -36 330 -6 36 -14 85 -17 110 -6 43 -5 44 13 30 10 -8 26 -22 34
-30z"/>
<path d="M1548 7080 c-125 -127 -139 -145 -158 -201 -11 -34 -20 -71 -20 -81
0 -25 338 310 341 337 4 49 -2 85 -13 84 -7 0 -75 -63 -150 -139z"/>
<path d="M1542 6760 l-163 -158 3 -61 3 -61 163 159 163 159 1 55 c1 31 0 58
-2 60 -3 3 -78 -66 -168 -153z"/>
<path d="M1538 6473 c-94 -94 -159 -168 -162 -183 -3 -14 -7 -46 -10 -73 -5
-46 -4 -47 17 -36 21 12 53 40 170 149 78 73 141 162 161 229 20 68 20 71 -2
71 -9 0 -88 -71 -174 -157z"/>
<path d="M1568 6193 c-222 -214 -208 -197 -208 -259 0 -30 3 -54 8 -54 4 0 82
75 174 168 l166 167 4 53 c2 28 0 52 -4 52 -4 0 -67 -57 -140 -127z"/>
<path d="M1528 5872 l-161 -158 -5 -56 c-2 -33 0 -58 6 -62 16 -10 340 317
342 345 4 49 0 89 -10 89 -6 0 -83 -71 -172 -158z"/>
<path d="M1542 5572 l-162 -157 0 -64 0 -63 123 119 c67 66 141 137 165 159
42 38 43 42 43 98 0 32 -1 60 -3 62 -2 2 -77 -67 -166 -154z"/>
<path d="M1558 5302 c-91 -92 -169 -178 -173 -190 -11 -37 3 -92 23 -92 26 0
322 295 323 322 0 13 1 42 2 66 2 24 0 47 -3 53 -3 5 -81 -67 -172 -159z"/>
<path d="M1571 5001 l-162 -162 -2 -59 c-1 -33 -1 -60 0 -60 2 0 79 76 173
170 160 160 170 172 170 207 0 78 -9 74 -179 -96z"/>
<path d="M1591 4741 l-161 -161 0 -67 0 -67 176 175 175 174 -6 45 c-4 25 -10
49 -15 53 -4 5 -80 -64 -169 -152z"/>
<path d="M1598 4433 c-133 -135 -157 -164 -163 -198 -8 -40 -12 -95 -8 -95 2
0 74 71 162 159 l159 159 4 66 c1 36 3 66 3 66 -1 0 -71 -71 -157 -157z"/>
<path d="M2895 4498 c-9 -22 4 -43 17 -30 7 7 7 16 0 29 -10 17 -11 17 -17 1z"/>
<path d="M2910 4435 c0 -10 7 -15 18 -13 21 4 19 22 -2 26 -10 2 -16 -3 -16
-13z"/>
<path d="M2973 4338 c-29 -14 -53 -67 -60 -134 -5 -48 -4 -54 13 -54 20 0 134
107 134 125 0 6 -15 25 -32 42 -28 26 -37 29 -55 21z"/>
<path d="M1645 4195 c-72 -71 -144 -141 -160 -153 -27 -22 -30 -30 -35 -98 -4
-62 -3 -74 11 -74 8 0 80 68 160 151 142 150 144 152 152 208 15 108 13 108
-128 -34z"/>
<path d="M3028 4073 c-99 -101 -101 -105 -99 -188 l1 -40 130 130 c72 71 130
137 130 146 0 19 -31 49 -51 49 -8 0 -58 -44 -111 -97z"/>
<path d="M3097 3857 c-164 -159 -167 -163 -167 -203 0 -37 11 -54 36 -54 2 0
84 80 182 178 l178 178 -16 29 c-9 17 -23 31 -31 32 -8 1 -89 -71 -182 -160z"/>
<path d="M1587 3832 l-159 -159 -1 -66 c-1 -37 -1 -67 0 -67 2 0 121 119 237
237 l89 91 1 61 c1 34 -1 61 -4 61 -3 0 -76 -71 -163 -158z"/>
<path d="M3202 3647 c-94 -95 -172 -176 -172 -181 0 -9 41 -45 53 -46 13 0
367 343 367 356 0 17 -34 44 -56 44 -12 0 -87 -68 -192 -173z"/>
<path d="M1595 3547 c-162 -165 -179 -190 -166 -245 3 -13 10 -24 15 -24 5 0
82 73 172 163 l164 164 0 53 c0 35 -4 52 -12 51 -7 0 -85 -73 -173 -162z"/>
<path d="M3348 3510 c-95 -100 -174 -188 -176 -196 -5 -23 26 -64 48 -64 23 0
311 283 335 329 13 27 14 35 1 65 -8 18 -19 36 -24 40 -6 3 -88 -75 -184 -174z"/>
<path d="M3483 3334 c-103 -103 -173 -181 -173 -192 0 -21 33 -56 49 -51 11 5
361 347 361 354 0 6 -29 35 -50 51 -12 9 -49 -23 -187 -162z"/>
<path d="M1618 3262 l-167 -167 -4 -52 c-3 -43 -1 -53 12 -53 9 0 89 73 179
163 l162 162 0 58 c0 31 -3 57 -7 57 -5 0 -83 -76 -175 -168z"/>
<path d="M3730 3302 c-25 -26 -103 -107 -174 -180 l-129 -132 23 -25 c13 -14
29 -25 36 -25 7 0 92 80 188 177 l175 178 -26 27 c-15 16 -32 28 -37 27 -6 0
-31 -21 -56 -47z"/>
<path d="M1690 3043 c-47 -47 -120 -119 -162 -161 -76 -75 -78 -78 -78 -125
l0 -49 33 7 c24 5 71 46 200 177 l168 171 -33 34 c-17 18 -34 33 -37 32 -4 0
-44 -39 -91 -86z"/>
<path d="M2590 3033 c-18 -8 -340 -336 -335 -342 3 -2 17 1 32 7 15 6 39 13
53 16 15 3 91 72 185 166 l160 160 -40 -1 c-22 0 -47 -3 -55 -6z"/>
<path d="M1816 2861 c-91 -91 -166 -172 -166 -180 0 -10 13 -12 56 -9 54 5 57
6 145 94 50 49 127 128 171 176 l80 88 -60 -1 -59 -1 -167 -167z"/>
<path d="M2109 2859 c-93 -93 -169 -174 -169 -180 0 -6 8 -8 18 -5 9 2 37 8
61 11 46 8 31 -6 275 243 l100 101 -58 0 -57 -1 -170 -169z"/>
</g>
</svg>
